<svg xmlns="http://www.w3.org/2000/svg" viewBox="0 0 64 64" fill="none" stroke-width="4.2" stroke-linecap="round" stroke-linejoin="round">
  <style>.h{stroke:#B4441F}.d{stroke:#14263A}@media (prefers-color-scheme:dark){.h{stroke:#F0925F}.d{stroke:#EFE9DD}}</style>
  <path class="h" d="M32 34C26 30 17 25 17 17.5 17 13 20.5 10 24.5 10c3.5 0 6 2 7.5 5 1.5-3 4-5 7.5-5 4 0 7.5 3 7.5 7.5C47 25 38 30 32 34Z"/>
  <path class="d" d="M8 30c-2 12 8 24 21 25M8 30c3-3 9-2 11 3M56 30c2 12-8 24-21 25M56 30c-3-3-9-2-11 3"/>
</svg>
